<mxfile host="Electron" modified="2024-05-19T09:55:37.336Z" agent="Mozilla/5.0 (Windows NT 10.0; Win64; x64) AppleWebKit/537.36 (KHTML, like Gecko) draw.io/24.4.0 Chrome/120.0.6099.109 Electron/28.1.0 Safari/537.36" etag="WDV0eUEX0b4YFU_zB1zb" version="24.4.0" type="device">
  <diagram id="tx-YEmY5H2JGtiArswQ2" name="Page-1">
    <mxGraphModel dx="1050" dy="621" grid="1" gridSize="10" guides="1" tooltips="1" connect="1" arrows="1" fold="1" page="1" pageScale="1" pageWidth="827" pageHeight="1169" math="0" shadow="0">
      <root>
        <mxCell id="0" />
        <mxCell id="1" parent="0" />
        <mxCell id="fNPnlY298W4xSonE1sl7-1" value="" style="ellipse;html=1;shape=startState;fillColor=#000000;strokeColor=#ff0000;" parent="1" vertex="1">
          <mxGeometry x="285" y="40" width="30" height="30" as="geometry" />
        </mxCell>
        <mxCell id="fNPnlY298W4xSonE1sl7-2" value="" style="edgeStyle=orthogonalEdgeStyle;html=1;verticalAlign=bottom;endArrow=open;endSize=8;strokeColor=#ff0000;rounded=0;" parent="1" source="fNPnlY298W4xSonE1sl7-1" edge="1">
          <mxGeometry relative="1" as="geometry">
            <mxPoint x="300" y="130" as="targetPoint" />
          </mxGeometry>
        </mxCell>
        <mxCell id="fNPnlY298W4xSonE1sl7-3" value="Zarejestrowany" style="rounded=1;whiteSpace=wrap;html=1;arcSize=40;fontColor=#000000;fillColor=#ffffc0;strokeColor=#ff0000;" parent="1" vertex="1">
          <mxGeometry x="240" y="130" width="120" height="40" as="geometry" />
        </mxCell>
        <mxCell id="fNPnlY298W4xSonE1sl7-4" value="" style="edgeStyle=orthogonalEdgeStyle;html=1;verticalAlign=bottom;endArrow=open;endSize=8;strokeColor=#ff0000;rounded=0;" parent="1" source="fNPnlY298W4xSonE1sl7-3" edge="1">
          <mxGeometry relative="1" as="geometry">
            <mxPoint x="300" y="240" as="targetPoint" />
          </mxGeometry>
        </mxCell>
        <mxCell id="fNPnlY298W4xSonE1sl7-5" value="W hotelu" style="rounded=1;whiteSpace=wrap;html=1;arcSize=40;fontColor=#000000;fillColor=#ffffc0;strokeColor=#ff0000;" parent="1" vertex="1">
          <mxGeometry x="240" y="360" width="120" height="40" as="geometry" />
        </mxCell>
        <mxCell id="fNPnlY298W4xSonE1sl7-8" value="" style="edgeStyle=orthogonalEdgeStyle;html=1;verticalAlign=bottom;endArrow=open;endSize=8;strokeColor=#ff0000;rounded=0;entryX=0.5;entryY=0;entryDx=0;entryDy=0;" parent="1" target="fNPnlY298W4xSonE1sl7-9" edge="1">
          <mxGeometry relative="1" as="geometry">
            <mxPoint x="305" y="460" as="targetPoint" />
            <mxPoint x="300" y="400" as="sourcePoint" />
          </mxGeometry>
        </mxCell>
        <mxCell id="fNPnlY298W4xSonE1sl7-9" value="Wyrejestrowany" style="rounded=1;whiteSpace=wrap;html=1;arcSize=40;fontColor=#000000;fillColor=#ffffc0;strokeColor=#ff0000;" parent="1" vertex="1">
          <mxGeometry x="240" y="500" width="120" height="40" as="geometry" />
        </mxCell>
        <mxCell id="fNPnlY298W4xSonE1sl7-10" value="" style="edgeStyle=orthogonalEdgeStyle;html=1;verticalAlign=bottom;endArrow=open;endSize=8;strokeColor=#ff0000;rounded=0;" parent="1" source="fNPnlY298W4xSonE1sl7-9" edge="1">
          <mxGeometry relative="1" as="geometry">
            <mxPoint x="300" y="625" as="targetPoint" />
          </mxGeometry>
        </mxCell>
        <mxCell id="fNPnlY298W4xSonE1sl7-11" value="" style="ellipse;html=1;shape=endState;fillColor=#000000;strokeColor=#ff0000;" parent="1" vertex="1">
          <mxGeometry x="285" y="625" width="30" height="30" as="geometry" />
        </mxCell>
        <mxCell id="fNPnlY298W4xSonE1sl7-13" value="Poza hotelem" style="rounded=1;whiteSpace=wrap;html=1;arcSize=40;fontColor=#000000;fillColor=#ffffc0;strokeColor=#ff0000;" parent="1" vertex="1">
          <mxGeometry x="240" y="240" width="120" height="40" as="geometry" />
        </mxCell>
        <mxCell id="fNPnlY298W4xSonE1sl7-14" value="" style="edgeStyle=orthogonalEdgeStyle;html=1;verticalAlign=bottom;endArrow=open;endSize=8;strokeColor=#ff0000;rounded=0;entryX=0.5;entryY=0;entryDx=0;entryDy=0;" parent="1" source="fNPnlY298W4xSonE1sl7-13" target="fNPnlY298W4xSonE1sl7-5" edge="1">
          <mxGeometry relative="1" as="geometry">
            <mxPoint x="320" y="385" as="targetPoint" />
            <Array as="points">
              <mxPoint x="300" y="340" />
              <mxPoint x="300" y="340" />
            </Array>
          </mxGeometry>
        </mxCell>
        <mxCell id="fNPnlY298W4xSonE1sl7-17" style="edgeStyle=orthogonalEdgeStyle;rounded=0;orthogonalLoop=1;jettySize=auto;html=1;exitX=0.5;exitY=1;exitDx=0;exitDy=0;" parent="1" source="fNPnlY298W4xSonE1sl7-5" target="fNPnlY298W4xSonE1sl7-5" edge="1">
          <mxGeometry relative="1" as="geometry" />
        </mxCell>
        <mxCell id="fNPnlY298W4xSonE1sl7-19" value="Status wizyty, która dotyczy pieska został zmieniony" style="text;html=1;strokeColor=none;fillColor=none;align=center;verticalAlign=middle;whiteSpace=wrap;rounded=0;" parent="1" vertex="1">
          <mxGeometry x="155" y="310" width="130" height="30" as="geometry" />
        </mxCell>
        <mxCell id="fNPnlY298W4xSonE1sl7-20" value="Wizyta została zakończona" style="text;html=1;strokeColor=none;fillColor=none;align=center;verticalAlign=middle;whiteSpace=wrap;rounded=0;" parent="1" vertex="1">
          <mxGeometry x="230" y="440" width="60" height="30" as="geometry" />
        </mxCell>
        <mxCell id="fNPnlY298W4xSonE1sl7-22" value="Wizyta została umówiona" style="text;html=1;strokeColor=none;fillColor=none;align=center;verticalAlign=middle;whiteSpace=wrap;rounded=0;" parent="1" vertex="1">
          <mxGeometry x="230" y="190" width="60" height="30" as="geometry" />
        </mxCell>
      </root>
    </mxGraphModel>
  </diagram>
</mxfile>
